<?xml version="1.0" encoding="utf-8"?>
<!-- Generator: Adobe Illustrator 21.1.0, SVG Export Plug-In . SVG Version: 6.00 Build 0)  -->
<svg version="1.1" id="Layer_1" xmlns="http://www.w3.org/2000/svg" xmlns:xlink="http://www.w3.org/1999/xlink" x="0px" y="0px"
	 viewBox="0 0 33.8 33.2" style="enable-background:new 0 0 33.8 33.2;" xml:space="preserve">
<style type="text/css">
	.st0{fill-rule:evenodd;clip-rule:evenodd;fill:url(#SVGID_1_);}
</style>
<radialGradient id="SVGID_1_" cx="16.908" cy="16.7406" r="15.5399" gradientUnits="userSpaceOnUse">
	<stop  offset="0" style="stop-color:#009FE3"/>
	<stop  offset="1" style="stop-color:#004982"/>
</radialGradient>
<path class="st0" d="M16.6,16.7l3.3-10.5c1.9,0.5,3.6,1.6,5,3.1c4,4.4,3.7,11.3-0.7,15.3c-4.4,4-11.3,3.7-15.3-0.7
	c-4-4.4-3.7-11.3,0.7-15.3c1.3-1.2,2.9-2,4.5-2.4L16.6,16.7z M13.7,30.8c-2.8-0.6-5.5-2.1-7.6-4.4c-5.4-5.9-5-15.1,1-20.5
	c1.8-1.6,3.9-2.7,6.1-3.3L13,1.4C10.6,2,8.3,3.2,6.3,5c-6.4,5.8-6.9,15.8-1.1,22.2c2.3,2.6,5.3,4.2,8.5,4.8V30.8z M28.5,6
	c-2-2.2-4.5-3.7-7.2-4.5L21,2.7c2.5,0.7,4.8,2.1,6.7,4.2c5.4,5.9,5,15.1-1,20.5c-2,1.8-4.4,3-6.9,3.5v1.2c2.8-0.5,5.5-1.8,7.8-3.8
	C33.9,22.4,34.4,12.5,28.5,6z M26.8,7.6c-1.7-1.9-3.9-3.2-6.2-3.9L20.3,5c2.1,0.6,4,1.8,5.6,3.5c4.5,5,4.1,12.6-0.8,17.1
	c-1.6,1.4-3.4,2.4-5.3,2.8v1.3c2.2-0.5,4.4-1.5,6.2-3.2C31.4,21.6,31.8,13.1,26.8,7.6z M13.7,28.3c-2.2-0.6-4.2-1.8-5.8-3.5
	C3.4,19.8,3.8,12.2,8.8,7.7c1.5-1.4,3.2-2.3,5.1-2.7l-0.3-1.3c-2,0.5-4,1.5-5.6,3C2.4,11.7,2,20.2,7,25.6c1.9,2.1,4.2,3.4,6.7,4
	V28.3z"/>
</svg>
